<svg width="22" height="22" viewBox="0 0 22 22" fill="none" xmlns="http://www.w3.org/2000/svg">
<path d="M14.6667 3.66669H17.4167C17.9029 3.66669 18.3692 3.85985 18.713 4.20366C19.0568 4.54748 19.25 5.01379 19.25 5.50003V6.41669M14.6667 18.3334H17.4167C17.9029 18.3334 18.3692 18.1402 18.713 17.7964C19.0568 17.4526 19.25 16.9863 19.25 16.5V15.5834M14.6676 11H19.2509M19.2509 11L17.4176 9.16669M19.2509 11L17.4176 12.8334M4.05625 17.809L9.55625 19.459C9.83004 19.5412 10.1193 19.5582 10.4008 19.5087C10.6823 19.4592 10.9484 19.3446 11.1778 19.1739C11.4071 19.0033 11.5933 18.7814 11.7216 18.5259C11.8499 18.2705 11.9167 17.9886 11.9167 17.7027V4.29736C11.9167 4.0115 11.8499 3.72958 11.7216 3.47413C11.5933 3.21868 11.4071 2.99677 11.1778 2.82612C10.9484 2.65547 10.6823 2.54082 10.4008 2.49132C10.1193 2.44182 9.83004 2.45884 9.55625 2.54103L4.05625 4.19103C3.6786 4.30439 3.34756 4.53648 3.11226 4.85286C2.87695 5.16925 2.74991 5.55306 2.75 5.94736V16.0527C2.74991 16.447 2.87695 16.8308 3.11226 17.1472C3.34756 17.4636 3.6786 17.6957 4.05625 17.809Z" stroke="#DD1919" stroke-width="2" stroke-linecap="round" stroke-linejoin="round"/>
</svg>
