<svg width="40" height="40" viewBox="0 0 40 40" fill="none" xmlns="http://www.w3.org/2000/svg">
<rect width="40" height="40" rx="6.4" fill="#191919"/>
<g clip-path="url(#clip0_204_8411)">
<path d="M22 23.7001H18C15.9323 23.7001 14.25 22.0178 14.25 19.9501V10.9501C14.25 8.88232 15.9323 7.20007 18 7.20007H22C24.0677 7.20007 25.75 8.88232 25.75 10.9501V19.9501C25.75 22.0178 24.0677 23.7001 22 23.7001ZM23.5 32.8001H16.5C16.0858 32.8001 15.75 32.4643 15.75 32.0501V31.5501C15.75 30.3094 16.7594 29.3001 18 29.3001H22C23.2407 29.3001 24.25 30.3094 24.25 31.5501V32.0501C24.25 32.4643 23.9142 32.8001 23.5 32.8001ZM27.25 19.7001V19.9501C27.25 22.8449 24.8948 25.2001 22 25.2001H18C15.1051 25.2001 12.75 22.8449 12.75 19.9501V19.7001H11.25V19.9501C11.25 23.672 14.278 26.7001 18 26.7001H22C25.722 26.7001 28.75 23.672 28.75 19.9501V19.7001H27.25Z" fill="url(#paint0_linear_204_8411)"/>
<path d="M20.75 26.7V29.3H19.25V26.7H20.75ZM22.75 13.95C22.75 13.5358 22.4142 13.2 22 13.2H18C17.5858 13.2 17.25 13.5358 17.25 13.95C17.25 14.3642 17.5858 14.7 18 14.7H22C22.4142 14.7 22.75 14.3642 22.75 13.95ZM22.75 16.95C22.75 16.5358 22.4142 16.2 22 16.2H18C17.5858 16.2 17.25 16.5358 17.25 16.95C17.25 17.3642 17.5858 17.7 18 17.7H22C22.4142 17.7 22.75 17.3642 22.75 16.95ZM22.75 19.95C22.75 19.5358 22.4142 19.2 22 19.2H18C17.5858 19.2 17.25 19.5358 17.25 19.95C17.25 20.3642 17.5858 20.7 18 20.7H22C22.4142 20.7 22.75 20.3642 22.75 19.95ZM22.6832 10.95C22.6832 10.5358 22.3474 10.2 21.9332 10.2H18C17.5858 10.2 17.25 10.5358 17.25 10.95C17.25 11.3642 17.5858 11.7 18 11.7H21.9332C22.3474 11.7 22.6832 11.3642 22.6832 10.95ZM31.2647 8.73768C30.9718 8.44478 30.497 8.44478 30.2041 8.73768C29.9112 9.03058 29.9112 9.50543 30.2041 9.79833C31.6662 11.2604 31.6662 13.6395 30.2041 15.1016C29.9112 15.3945 29.9112 15.8694 30.2041 16.1623C30.497 16.4552 30.9718 16.4552 31.2647 16.1623C33.3117 14.1153 33.3117 10.7846 31.2647 8.73768ZM29.1434 10.859C28.8505 10.5661 28.3757 10.5661 28.0828 10.859C27.7899 11.1519 27.7899 11.6267 28.0828 11.9196C28.3752 12.212 28.3752 12.6878 28.0828 12.9803C27.7899 13.2732 27.7899 13.748 28.0828 14.0409C28.3757 14.3338 28.8505 14.3338 29.1434 14.0409C30.0207 13.1637 30.0207 11.7363 29.1434 10.859ZM8.73525 16.1623C9.02815 16.4552 9.503 16.4552 9.7959 16.1623C10.0888 15.8694 10.0888 15.3945 9.7959 15.1016C8.33375 13.6395 8.3338 11.2604 9.7959 9.79833C10.0888 9.50543 10.0888 9.03058 9.7959 8.73768C9.503 8.44478 9.02815 8.44478 8.73525 8.73768C6.68825 10.7846 6.68825 14.1153 8.73525 16.1623ZM10.8565 14.041C11.1494 14.3339 11.6243 14.3339 11.9172 14.041C12.2101 13.7481 12.2101 13.2732 11.9172 12.9803C11.6247 12.6879 11.6248 12.2121 11.9172 11.9197C12.2101 11.6268 12.2101 11.1519 11.9172 10.859C11.6243 10.5661 11.1494 10.5661 10.8565 10.859C9.9793 11.7363 9.97925 13.1637 10.8565 14.041ZM29.5 18.2H25.75V19.7H29.5C29.9142 19.7 30.25 19.3642 30.25 18.95C30.25 18.5358 29.9142 18.2 29.5 18.2ZM10.5 18.2C10.0858 18.2 9.75 18.5358 9.75 18.95C9.75 19.3642 10.0858 19.7 10.5 19.7H14.25V18.2H10.5Z" fill="url(#paint1_linear_204_8411)"/>
</g>
<defs>
<linearGradient id="paint0_linear_204_8411" x1="20" y1="32.8001" x2="20" y2="7.20007" gradientUnits="userSpaceOnUse">
<stop stop-color="#DAC6F9"/>
<stop offset="1" stop-color="#FCEAFF"/>
</linearGradient>
<linearGradient id="paint1_linear_204_8411" x1="20" y1="29.3" x2="20" y2="8.51798" gradientUnits="userSpaceOnUse">
<stop stop-color="#A374EB"/>
<stop offset="1" stop-color="#E974EB"/>
</linearGradient>
<clipPath id="clip0_204_8411">
<rect width="25.6" height="25.6" fill="white" transform="translate(7.2 7.20001)"/>
</clipPath>
</defs>
</svg>
